<svg width="26" height="25" viewBox="0 0 26 25" fill="none" xmlns="http://www.w3.org/2000/svg">
<path d="M13.0424 0.0698761C10.6402 0.0792572 8.29456 0.800141 6.30173 2.14157C4.30889 3.48301 2.75819 5.38484 1.84538 7.60692C0.932573 9.82899 0.698592 12.2717 1.17299 14.6266C1.64738 16.9816 2.80891 19.1432 4.51086 20.8385C6.21282 22.5339 8.3789 23.687 10.7357 24.1521C13.0925 24.6174 15.5343 24.3739 17.7527 23.4524C19.9712 22.531 21.867 20.9729 23.2006 18.9748C24.5343 16.9767 25.2461 14.6284 25.2461 12.2261C25.2446 10.6262 24.9274 9.04226 24.3131 7.56501C23.6986 6.08774 22.799 4.74614 21.6654 3.61702C20.5318 2.4879 19.1868 1.59344 17.7072 0.984773C16.2275 0.376107 14.6423 0.0652034 13.0424 0.0698761ZM19.3162 13.4121H14.2402V18.4762C14.2402 18.7907 14.1152 19.0924 13.8929 19.3149C13.6705 19.5373 13.3688 19.6621 13.0543 19.6621C12.7397 19.6621 12.438 19.5373 12.2157 19.3149C11.9933 19.0924 11.8683 18.7907 11.8683 18.4762V13.4121H6.79233C6.47779 13.4121 6.17612 13.2872 5.9537 13.0647C5.73129 12.8423 5.60635 12.5407 5.60635 12.2261C5.60635 11.9116 5.73129 11.61 5.9537 11.3875C6.17612 11.1651 6.47779 11.0401 6.79233 11.0401H11.8683V5.91674C11.8683 5.60219 11.9933 5.30055 12.2157 5.07813C12.438 4.85573 12.7397 4.73076 13.0543 4.73076C13.3688 4.73076 13.6705 4.85573 13.8929 5.07813C14.1152 5.30055 14.2402 5.60219 14.2402 5.91674V10.9927H19.3162C19.6307 10.9927 19.9324 11.1177 20.1548 11.34C20.3772 11.5625 20.5022 11.8641 20.5022 12.1786C20.5022 12.4933 20.3772 12.7949 20.1548 13.0174C19.9324 13.2397 19.6307 13.3646 19.3162 13.3646V13.4121Z" fill="#A0A0A0"/>
</svg>
