<svg width="22" height="22" viewBox="0 0 22 22" fill="none" xmlns="http://www.w3.org/2000/svg">
<path d="M20.75 9.69446V6.47154C20.75 5.89691 20.5217 5.34581 20.1154 4.93948C19.7091 4.53315 19.158 4.30488 18.5833 4.30488H12.0833V2.88355C12.4138 2.58671 12.625 2.15988 12.625 1.68105C12.625 1.25007 12.4538 0.836744 12.1491 0.531997C11.8443 0.22725 11.431 0.0560455 11 0.0560455C10.569 0.0560455 10.1557 0.22725 9.85096 0.531997C9.54621 0.836744 9.37501 1.25007 9.37501 1.68105C9.37501 2.15988 9.58626 2.58671 9.91667 2.88355V4.30488H3.41667C2.84204 4.30488 2.29094 4.53315 1.88461 4.93948C1.47828 5.34581 1.25001 5.89691 1.25001 6.47154V9.71938L1.17201 9.72479C0.898883 9.74425 0.64329 9.86652 0.456734 10.0669C0.270178 10.2674 0.166528 10.5311 0.166672 10.8049V12.9715C0.166672 13.2589 0.280808 13.5344 0.483973 13.7376C0.687137 13.9407 0.962687 14.0549 1.25001 14.0549V19.4715C1.25001 20.0462 1.47828 20.5973 1.88461 21.0036C2.29094 21.4099 2.84204 21.6382 3.41667 21.6382H18.5833C19.158 21.6382 19.7091 21.4099 20.1154 21.0036C20.5217 20.5973 20.75 20.0462 20.75 19.4715V14.0549C21.0373 14.0549 21.3129 13.9407 21.516 13.7376C21.7192 13.5344 21.8333 13.2589 21.8333 12.9715V10.872C21.8459 10.7039 21.8192 10.5352 21.7553 10.3791C21.5365 9.85046 21.0674 9.72371 20.75 9.69446ZM5.58334 10.8049C5.58334 9.60888 6.31134 8.63821 7.20834 8.63821C8.10534 8.63821 8.83334 9.60888 8.83334 10.8049C8.83334 12.0009 8.10534 12.9715 7.20834 12.9715C6.31134 12.9715 5.58334 12.0009 5.58334 10.8049ZM15.3312 17.3049C14.2468 17.3016 6.66667 17.3049 6.66667 17.3049V15.1382C6.66667 15.1382 14.2511 15.136 15.3355 15.1382L15.3312 17.3049ZM14.7917 12.9715C13.8947 12.9715 13.1667 12.0009 13.1667 10.8049C13.1667 9.60888 13.8947 8.63821 14.7917 8.63821C15.6887 8.63821 16.4167 9.60888 16.4167 10.8049C16.4167 12.0009 15.6887 12.9715 14.7917 12.9715Z" fill="#009A73"/>
</svg>
