<svg height="46" width="46" viewBox="0 0 46 46" fill="none" xmlns="http://www.w3.org/2000/svg">
<path d="M35.1562 20.7385V16.5549C35.1562 15.8089 34.8599 15.0936 34.3325 14.5661C33.805 14.0387 33.0897 13.7424 32.3438 13.7424H23.9062V11.8974C24.3352 11.5121 24.6094 10.958 24.6094 10.3364C24.6094 9.77698 24.3871 9.24046 23.9916 8.84487C23.596 8.44929 23.0594 8.22705 22.5 8.22705C21.9406 8.22705 21.404 8.44929 21.0084 8.84487C20.6129 9.24046 20.3906 9.77698 20.3906 10.3364C20.3906 10.958 20.6648 11.5121 21.0938 11.8974V13.7424H12.6563C11.9103 13.7424 11.195 14.0387 10.6675 14.5661C10.1401 15.0936 9.84375 15.8089 9.84375 16.5549V20.7708L9.7425 20.7778C9.38797 20.8031 9.05619 20.9618 8.81402 21.222C8.57186 21.4821 8.43731 21.8244 8.4375 22.1799V24.9924C8.4375 25.3653 8.58566 25.723 8.84938 25.9867C9.1131 26.2505 9.47079 26.3986 9.84375 26.3986V33.4299C9.84375 34.1758 10.1401 34.8912 10.6675 35.4186C11.195 35.946 11.9103 36.2424 12.6563 36.2424H32.3438C33.0897 36.2424 33.805 35.946 34.3325 35.4186C34.8599 34.8912 35.1562 34.1758 35.1562 33.4299V26.3986C35.5292 26.3986 35.8869 26.2505 36.1506 25.9867C36.4143 25.723 36.5625 25.3653 36.5625 24.9924V22.267C36.5788 22.0488 36.5441 21.8298 36.4612 21.6272C36.1772 20.941 35.5683 20.7764 35.1562 20.7385ZM15.4688 22.1799C15.4688 20.6274 16.4137 19.3674 17.5781 19.3674C18.7425 19.3674 19.6875 20.6274 19.6875 22.1799C19.6875 23.7324 18.7425 24.9924 17.5781 24.9924C16.4137 24.9924 15.4688 23.7324 15.4688 22.1799ZM28.1222 30.6174C26.7145 30.6131 16.875 30.6174 16.875 30.6174V27.8049C16.875 27.8049 26.7202 27.802 28.1278 27.8049L28.1222 30.6174ZM27.4219 24.9924C26.2575 24.9924 25.3125 23.7324 25.3125 22.1799C25.3125 20.6274 26.2575 19.3674 27.4219 19.3674C28.5863 19.3674 29.5312 20.6274 29.5312 22.1799C29.5312 23.7324 28.5863 24.9924 27.4219 24.9924Z" fill="#009A73"/>
<circle cx="22.5" cy="23.3049" r="22" stroke="#009A73"/>
</svg>
