<svg width="24" height="23" viewBox="0 0 24 23" fill="none" xmlns="http://www.w3.org/2000/svg">
<path d="M17.0837 0.255859H7.00295C5.19531 0.25899 3.46254 0.97845 2.18435 2.25665C0.90615 3.53484 0.186725 5.26758 0.183594 7.07522V15.377C0.186725 17.1847 0.90615 18.9174 2.18435 20.1955C3.46254 21.4738 5.19531 22.1933 7.00295 22.1964H17.0837C18.8914 22.1933 20.6241 21.4738 21.9024 20.1955C23.1805 18.9174 23.9 17.1847 23.9031 15.377V7.07522C23.9 5.26758 23.1805 3.53484 21.9024 2.25665C20.6241 0.97845 18.8914 0.25899 17.0837 0.255859ZM7.29945 4.22885C8.05749 4.22885 8.78446 4.52997 9.32047 5.066C9.85653 5.60201 10.1576 6.32902 10.1576 7.08706C10.1576 7.8451 9.85653 8.5721 9.32047 9.1081C8.78446 9.64416 8.05749 9.94528 7.29945 9.94528C6.9241 9.94445 6.5526 9.86973 6.20612 9.7254C5.85965 9.58107 5.54502 9.36984 5.28016 9.10395C4.74526 8.56678 4.44556 7.83916 4.44714 7.08111C4.44872 6.32307 4.75143 5.59673 5.28855 5.06184C5.82568 4.52693 6.55328 4.22728 7.31132 4.22885H7.29945ZM22.1241 12.1512L19.5388 10.1469C18.794 9.62779 17.8903 9.38728 16.9861 9.46757C16.082 9.54774 15.2349 9.94362 14.5932 10.5857L11.83 13.349C11.2514 13.9088 10.4999 14.2558 9.69856 14.3334C8.89727 14.411 8.09322 14.2144 7.41802 13.776C7.08895 13.5586 6.6963 13.4583 6.30326 13.4913C5.90858 13.5329 5.54012 13.7087 5.2596 13.9895L2.37763 17.3576C2.06631 16.6447 1.92426 15.8693 1.96256 15.0924L3.95506 12.7798C4.52959 12.1991 5.28641 11.8339 6.09841 11.7454C6.91042 11.6568 7.72818 11.8503 8.41434 12.2935C8.7424 12.5156 9.13785 12.616 9.53213 12.577C9.92638 12.5379 10.2945 12.3622 10.5727 12.08L13.3361 9.32857C14.2816 8.3861 15.53 7.80844 16.8605 7.69774C18.191 7.58705 19.5177 7.95047 20.6061 8.7237L22.1241 9.9097V12.1512Z" fill="#009A73"/>
</svg>
